<?xml version="1.0" encoding="UTF-8" standalone="no"?>
<!-- Created with Inkscape (http://www.inkscape.org/) -->

<svg
   width="510.8631"
   height="511.39365"
   viewBox="0 0 135.16586 135.30624"
   version="1.1"
   id="svg1"
   inkscape:version="1.4.2 (ebf0e940d0, 2025-05-08)"
   sodipodi:docname="noartworkfound.svg"
   xmlns:inkscape="http://www.inkscape.org/namespaces/inkscape"
   xmlns:sodipodi="http://sodipodi.sourceforge.net/DTD/sodipodi-0.dtd"
   xmlns="http://www.w3.org/2000/svg"
   xmlns:svg="http://www.w3.org/2000/svg">
  <sodipodi:namedview
     id="namedview1"
     pagecolor="#ffffff"
     bordercolor="#000000"
     borderopacity="0.25"
     inkscape:showpageshadow="2"
     inkscape:pageopacity="0.0"
     inkscape:pagecheckerboard="0"
     inkscape:deskcolor="#d1d1d1"
     inkscape:document-units="mm"
     inkscape:zoom="0.66646401"
     inkscape:cx="-4.5013683"
     inkscape:cy="271.58256"
     inkscape:window-width="1674"
     inkscape:window-height="1355"
     inkscape:window-x="20"
     inkscape:window-y="20"
     inkscape:window-maximized="0"
     inkscape:current-layer="layer1">
    <inkscape:page
       x="0"
       y="0"
       width="135.16586"
       height="135.30624"
       id="page2"
       margin="0"
       bleed="0" />
  </sodipodi:namedview>
  <defs
     id="defs1" />
  <g
     inkscape:label="Layer 1"
     inkscape:groupmode="layer"
     id="layer1"
     transform="translate(-0.2807183,0.14035913)"
     style="display:inline">
    <rect
       style="fill:#faf3e6;fill-opacity:1;stroke-width:0.258547"
       id="rect1"
       width="135.16586"
       height="135.30624"
       x="0.2807183"
       y="-0.14035913" />
    <g
       id="text1"
       style="font-size:7.28886px;white-space:pre;inline-size:71.9807;fill:#faf3e6;stroke-width:0.607406"
       transform="matrix(2.1961405,0,0,1.9796301,-130.16782,-52.665142)"
       aria-label="NO&#10;ARTWORK&#10;FOUND">
      <path
         style="font-weight:bold;font-family:'Adwaita Mono';-inkscape-font-specification:'Adwaita Mono';direction:rtl;fill:#000000"
         d="M 113.23439,54.180992 V 48.82368 h 0.91839 l 1.53795,3.994295 q -0.0292,-0.225954 -0.0583,-0.459198 -0.0219,-0.233243 -0.0437,-0.459198 -0.0146,-0.233244 -0.0219,-0.466487 -0.007,-0.233244 -0.007,-0.466487 V 48.82368 h 0.86738 v 5.357312 h -0.9184 l -1.53795,-3.994295 q 0.0292,0.225955 0.051,0.459198 0.0292,0.233244 0.0437,0.466487 0.0219,0.225955 0.0292,0.459198 0.007,0.233244 0.007,0.466487 v 2.142925 z m 5.96957,0.05831 q -0.21866,0 -0.43733,-0.03644 -0.21866,-0.03644 -0.42275,-0.1312 -0.1968,-0.102044 -0.35716,-0.25511 -0.16035,-0.160355 -0.26239,-0.349865 -0.0948,-0.196799 -0.13849,-0.415465 -0.0365,-0.218666 -0.0365,-0.437332 v -2.223102 q 0,-0.218666 0.0365,-0.437332 0.0437,-0.218665 0.13849,-0.408176 0.10204,-0.196799 0.26239,-0.349865 0.16036,-0.160355 0.35716,-0.25511 0.20409,-0.102044 0.42275,-0.138488 0.21867,-0.03645 0.43733,-0.03645 0.21867,0 0.43734,0.03645 0.21866,0.03644 0.41546,0.138488 0.20409,0.09475 0.36444,0.25511 0.16036,0.153066 0.25511,0.349865 0.10205,0.189511 0.13849,0.408176 0.0437,0.218666 0.0437,0.437332 v 2.223102 q 0,0.218666 -0.0437,0.437332 -0.0364,0.218666 -0.13849,0.415465 -0.0948,0.18951 -0.25511,0.349865 -0.16035,0.153066 -0.36444,0.25511 -0.1968,0.09476 -0.41546,0.1312 -0.21867,0.03644 -0.43734,0.03644 z m 0,-0.736175 q 0.16765,0 0.328,-0.05831 0.16765,-0.0656 0.26969,-0.196799 0.10933,-0.131199 0.14578,-0.298843 0.0437,-0.167644 0.0437,-0.335288 v -2.223102 q 0,-0.167644 -0.0437,-0.335288 -0.0365,-0.167643 -0.14578,-0.298843 -0.10204,-0.131199 -0.26969,-0.18951 -0.16035,-0.0656 -0.328,-0.0656 -0.16764,0 -0.33528,0.0656 -0.16036,0.05831 -0.26969,0.18951 -0.10205,0.1312 -0.14578,0.298843 -0.0364,0.167644 -0.0364,0.335288 v 2.223102 q 0,0.167644 0.0364,0.335288 0.0437,0.167644 0.14578,0.298843 0.10933,0.1312 0.26969,0.196799 0.16764,0.05831 0.33528,0.05831 z"
         id="path1" />
      <path
         style="font-weight:bold;font-family:'Adwaita Mono';-inkscape-font-specification:'Adwaita Mono';direction:rtl;fill:#000000"
         d="M 91.141837,63.385912 92.46841,58.0286 h 0.991285 l 1.326572,5.357312 h -0.89653 l -0.25511,-1.158928 h -1.34115 l -0.25511,1.158928 z m 2.332435,-1.895103 -0.364443,-1.676438 q -0.03644,-0.167644 -0.07289,-0.327999 -0.03645,-0.167643 -0.07289,-0.327998 -0.03644,0.160355 -0.07289,0.327998 -0.03645,0.160355 -0.07289,0.327999 l -0.364443,1.676438 z m 4.694029,1.895103 -1.071463,-2.070036 h -0.488353 v 2.070036 H 95.741111 V 58.0286 h 1.734748 q 0.211377,0 0.422754,0.04373 0.211377,0.04373 0.393598,0.153066 0.182222,0.102044 0.32071,0.262399 0.145777,0.160354 0.225955,0.357154 0.08747,0.18951 0.116622,0.400887 0.03644,0.211377 0.03644,0.430043 0,0.247821 -0.05102,0.502931 -0.04373,0.247821 -0.167644,0.466487 -0.12391,0.211377 -0.327998,0.371732 -0.204089,0.160355 -0.444621,0.233243 l 1.107907,2.135636 z m -1.559816,-2.806211 h 0.867374 q 0.102044,0 0.204088,-0.02916 0.102044,-0.03644 0.182222,-0.102044 0.08018,-0.07289 0.131199,-0.160355 0.05102,-0.09475 0.08018,-0.196799 0.02916,-0.102044 0.03644,-0.204088 0.01458,-0.109333 0.01458,-0.211377 0,-0.109333 -0.01458,-0.211377 -0.0073,-0.109333 -0.03644,-0.204088 -0.02916,-0.102044 -0.08018,-0.1968 -0.05102,-0.09475 -0.131199,-0.160354 -0.08018,-0.07289 -0.182222,-0.102044 -0.102044,-0.03645 -0.204088,-0.03645 h -0.867374 z m 4.672165,2.806211 V 58.764775 H 100.0707 V 58.0286 h 3.27998 v 0.736175 h -1.20995 v 4.621137 z m 3.62985,0 -0.72888,-5.357312 h 0.77261 l 0.33529,3.651719 0.43733,-3.651719 h 0.71431 l 0.43733,3.651719 0.33529,-3.651719 h 0.77262 l -0.72889,5.357312 h -0.72159 l -0.45191,-3.841229 -0.45191,3.841229 z m 5.54683,0.05831 q -0.21867,0 -0.43733,-0.03644 -0.21867,-0.03644 -0.42276,-0.1312 -0.1968,-0.102044 -0.35715,-0.25511 -0.16036,-0.160355 -0.2624,-0.349865 -0.0948,-0.196799 -0.13849,-0.415465 -0.0364,-0.218666 -0.0364,-0.437332 v -2.223102 q 0,-0.218666 0.0364,-0.437331 0.0437,-0.218666 0.13849,-0.408177 0.10204,-0.196799 0.2624,-0.349865 0.16035,-0.160355 0.35715,-0.25511 0.20409,-0.102044 0.42276,-0.138488 0.21866,-0.03645 0.43733,-0.03645 0.21866,0 0.43733,0.03645 0.21866,0.03644 0.41546,0.138488 0.20409,0.09476 0.36445,0.25511 0.16035,0.153066 0.25511,0.349865 0.10204,0.189511 0.13848,0.408177 0.0437,0.218665 0.0437,0.437331 v 2.223102 q 0,0.218666 -0.0437,0.437332 -0.0364,0.218666 -0.13848,0.415465 -0.0948,0.18951 -0.25511,0.349865 -0.16036,0.153066 -0.36445,0.25511 -0.1968,0.09476 -0.41546,0.1312 -0.21867,0.03644 -0.43733,0.03644 z m 0,-0.736175 q 0.16764,0 0.328,-0.05831 0.16764,-0.0656 0.26968,-0.1968 0.10934,-0.131199 0.14578,-0.298843 0.0437,-0.167644 0.0437,-0.335288 v -2.223102 q 0,-0.167644 -0.0437,-0.335287 -0.0364,-0.167644 -0.14578,-0.298844 -0.10204,-0.131199 -0.26968,-0.18951 -0.16036,-0.0656 -0.328,-0.0656 -0.16765,0 -0.33529,0.0656 -0.16036,0.05831 -0.26969,0.18951 -0.10204,0.1312 -0.14578,0.298844 -0.0364,0.167643 -0.0364,0.335287 v 2.223102 q 0,0.167644 0.0364,0.335288 0.0437,0.167644 0.14578,0.298843 0.10933,0.1312 0.26969,0.1968 0.16764,0.05831 0.33529,0.05831 z m 5.20424,0.677864 -1.07146,-2.070036 h -0.48835 v 2.070036 h -0.86738 V 58.0286 h 1.73475 q 0.21138,0 0.42276,0.04373 0.21137,0.04373 0.3936,0.153066 0.18222,0.102044 0.32071,0.262399 0.14577,0.160354 0.22595,0.357154 0.0875,0.18951 0.11662,0.400887 0.0365,0.211377 0.0365,0.430043 0,0.247821 -0.051,0.502931 -0.0437,0.247821 -0.16764,0.466487 -0.12391,0.211377 -0.328,0.371732 -0.20409,0.160355 -0.44462,0.233243 l 1.10791,2.135636 z m -1.55981,-2.806211 h 0.86737 q 0.10205,0 0.20409,-0.02916 0.10205,-0.03644 0.18222,-0.102044 0.0802,-0.07289 0.1312,-0.160355 0.051,-0.09475 0.0802,-0.196799 0.0291,-0.102044 0.0364,-0.204088 0.0146,-0.109333 0.0146,-0.211377 0,-0.109333 -0.0146,-0.211377 -0.007,-0.109333 -0.0364,-0.204088 -0.0292,-0.102044 -0.0802,-0.1968 -0.051,-0.09475 -0.1312,-0.160354 -0.0802,-0.07289 -0.18222,-0.102044 -0.10204,-0.03645 -0.20409,-0.03645 h -0.86737 z m 5.90398,2.806211 -1.09333,-2.186658 -0.30613,0.466487 v 1.720171 h -0.86009 V 58.0286 h 0.86009 v 2.281413 l 1.3703,-2.281413 h 0.96942 l -1.5671,2.441768 1.5671,2.915544 z"
         id="path2" />
      <path
         style="font-weight:bold;font-family:'Adwaita Mono';-inkscape-font-specification:'Adwaita Mono';direction:rtl;fill:#000000"
         d="m 100.41327,72.59083 v -5.357312 h 2.89368 v 0.736175 h -2.03359 v 1.465061 h 1.55253 v 0.736175 h -1.55253 v 2.419901 z m 5.67074,0.05831 q -0.21867,0 -0.43733,-0.03644 -0.21867,-0.03644 -0.42276,-0.1312 -0.1968,-0.102044 -0.35715,-0.25511 -0.16036,-0.160355 -0.2624,-0.349865 -0.0948,-0.196799 -0.13849,-0.415465 -0.0364,-0.218666 -0.0364,-0.437332 v -2.223102 q 0,-0.218666 0.0364,-0.437331 0.0437,-0.218666 0.13849,-0.408177 0.10204,-0.196799 0.2624,-0.349865 0.16035,-0.160355 0.35715,-0.25511 0.20409,-0.102044 0.42276,-0.138488 0.21866,-0.03645 0.43733,-0.03645 0.21866,0 0.43733,0.03645 0.21867,0.03644 0.41546,0.138488 0.20409,0.09476 0.36445,0.25511 0.16035,0.153066 0.25511,0.349865 0.10204,0.189511 0.13849,0.408177 0.0437,0.218665 0.0437,0.437331 v 2.223102 q 0,0.218666 -0.0437,0.437332 -0.0365,0.218666 -0.13849,0.415465 -0.0948,0.18951 -0.25511,0.349865 -0.16036,0.153066 -0.36445,0.25511 -0.19679,0.09476 -0.41546,0.1312 -0.21867,0.03644 -0.43733,0.03644 z m 0,-0.736175 q 0.16764,0 0.328,-0.05831 0.16764,-0.0656 0.26968,-0.196799 0.10934,-0.131199 0.14578,-0.298843 0.0437,-0.167644 0.0437,-0.335288 v -2.223102 q 0,-0.167644 -0.0437,-0.335287 -0.0364,-0.167644 -0.14578,-0.298844 -0.10204,-0.131199 -0.26968,-0.18951 -0.16036,-0.0656 -0.328,-0.0656 -0.16765,0 -0.33529,0.0656 -0.16035,0.05831 -0.26969,0.18951 -0.10204,0.1312 -0.14577,0.298844 -0.0365,0.167643 -0.0365,0.335287 v 2.223102 q 0,0.167644 0.0365,0.335288 0.0437,0.167644 0.14577,0.298843 0.10934,0.1312 0.26969,0.196799 0.16764,0.05831 0.33529,0.05831 z m 4.37332,0.736175 q -0.21867,0 -0.43733,-0.04373 -0.21138,-0.03644 -0.40089,-0.1312 -0.18951,-0.102044 -0.34258,-0.25511 -0.15306,-0.160355 -0.24782,-0.357154 -0.0948,-0.196799 -0.1312,-0.408176 -0.0364,-0.218666 -0.0364,-0.430043 v -3.790207 h 0.86737 v 3.790207 q 0,0.160355 0.0292,0.327999 0.0364,0.160355 0.1312,0.291554 0.0947,0.1312 0.24782,0.204089 0.16035,0.0656 0.32071,0.0656 0.16035,0 0.31342,-0.0656 0.16035,-0.07289 0.25511,-0.204089 0.0948,-0.131199 0.12391,-0.291554 0.0364,-0.167644 0.0364,-0.327999 v -3.790207 h 0.86738 v 3.790207 q 0,0.211377 -0.0365,0.430043 -0.0364,0.211377 -0.1312,0.408176 -0.0948,0.196799 -0.24782,0.357154 -0.15306,0.153066 -0.34257,0.25511 -0.18951,0.09476 -0.40818,0.1312 -0.21138,0.04373 -0.43004,0.04373 z m 2.77706,-0.05831 v -5.357312 h 0.91839 l 1.53795,3.994295 q -0.0292,-0.225954 -0.0583,-0.459198 -0.0219,-0.233243 -0.0437,-0.459198 -0.0146,-0.233243 -0.0219,-0.466487 -0.007,-0.233243 -0.007,-0.466487 v -2.142925 h 0.86738 v 5.357312 h -0.9184 l -1.53795,-3.994295 q 0.0292,0.225955 0.051,0.459198 0.0292,0.233244 0.0437,0.466487 0.0219,0.225955 0.0292,0.459198 0.007,0.233244 0.007,0.466487 v 2.142925 z m 5.60513,0 h -1.23182 v -5.357312 h 1.23182 q 0.18951,0 0.37902,0.02916 0.18951,0.02187 0.36444,0.09475 0.17494,0.07289 0.328,0.182221 0.16036,0.109333 0.29156,0.247822 0.1312,0.138488 0.22595,0.298843 0.10205,0.160355 0.17494,0.335287 0.0729,0.174933 0.12391,0.364443 0.051,0.182222 0.0802,0.371732 0.0292,0.182222 0.0365,0.371732 0.0146,0.18951 0.0146,0.379021 0,0.196799 -0.0146,0.386309 -0.007,0.189511 -0.0365,0.379021 -0.0291,0.182222 -0.0802,0.371732 -0.051,0.182221 -0.12391,0.357154 -0.0729,0.174933 -0.17494,0.335288 -0.0947,0.160355 -0.22595,0.298843 -0.1312,0.138488 -0.29156,0.247821 -0.15306,0.109333 -0.328,0.182222 -0.17493,0.07289 -0.36444,0.102044 -0.18951,0.02187 -0.37902,0.02187 z m -0.36444,-0.736175 h 0.36444 q 0.12391,0 0.24782,-0.02187 0.12391,-0.02916 0.23325,-0.09476 0.10933,-0.07289 0.1968,-0.160355 0.0875,-0.09476 0.15306,-0.196799 0.0656,-0.109333 0.11662,-0.225955 0.051,-0.116622 0.0875,-0.240533 0.0364,-0.12391 0.0583,-0.247821 0.0219,-0.12391 0.0364,-0.247821 0.0146,-0.123911 0.0146,-0.247821 0.007,-0.1312 0.007,-0.25511 0,-0.1312 -0.007,-0.25511 0,-0.1312 -0.0146,-0.25511 -0.0146,-0.123911 -0.0364,-0.247822 -0.0219,-0.12391 -0.0583,-0.247821 -0.0364,-0.123911 -0.0875,-0.240532 -0.051,-0.116622 -0.11662,-0.218666 -0.0656,-0.109333 -0.15306,-0.196799 -0.0875,-0.09476 -0.1968,-0.160355 -0.10934,-0.07289 -0.23325,-0.09475 -0.12391,-0.02916 -0.24782,-0.02916 h -0.36444 z"
         id="path3" />
    </g>
  </g>
</svg>
